<svg width="20" height="20" viewBox="0 0 20 20" fill="none" xmlns="http://www.w3.org/2000/svg">
<mask id="mask0_3406_952" style="mask-type:alpha" maskUnits="userSpaceOnUse" x="0" y="0" width="20" height="20">
<rect width="20" height="20" fill="#D9D9D9"/>
</mask>
<g mask="url(#mask0_3406_952)">
<path d="M17 9.76923L12.9135 14.8894C12.7372 15.0978 12.5317 15.258 12.2971 15.3702C12.0627 15.4824 11.8114 15.5385 11.5433 15.5385H3.73077C3.25481 15.5385 2.84736 15.369 2.50841 15.03C2.16947 14.6911 2 14.2837 2 13.8077V5.73077C2 5.25481 2.16947 4.84736 2.50841 4.50841C2.84736 4.16947 3.25481 4 3.73077 4H11.5433C11.8114 4 12.0627 4.05609 12.2971 4.16827C12.5317 4.28045 12.7372 4.44071 12.9135 4.64904L17 9.76923ZM14.7885 9.76923L11.5433 5.73077H3.73077V13.8077H11.5433L14.7885 9.76923Z" fill="#3C3E3D"/>
</g>
</svg>
