<svg width="24" height="24" viewBox="0 0 24 24" fill="none" xmlns="http://www.w3.org/2000/svg">
<path d="M19.1401 12.936C19.1761 12.636 19.2001 12.324 19.2001 12C19.2001 11.676 19.1761 11.364 19.1281 11.064L21.1561 9.48002C21.3361 9.33602 21.3841 9.07202 21.2761 8.86802L19.3561 5.54402C19.2361 5.32802 18.9841 5.25602 18.7681 5.32802L16.3801 6.28802C15.8761 5.90402 15.3481 5.59202 14.7601 5.35202L14.4001 2.80802C14.3641 2.56802 14.1601 2.40002 13.9201 2.40002H10.0801C9.84011 2.40002 9.64811 2.56802 9.61211 2.80802L9.25211 5.35202C8.66411 5.59202 8.12411 5.91602 7.63211 6.28802L5.24411 5.32802C5.02811 5.24402 4.77611 5.32802 4.65611 5.54402L2.73611 8.86802C2.61611 9.08402 2.66411 9.33602 2.85611 9.48002L4.88411 11.064C4.83611 11.364 4.80011 11.688 4.80011 12C4.80011 12.312 4.82411 12.636 4.87211 12.936L2.84411 14.52C2.66411 14.664 2.61611 14.928 2.72411 15.132L4.64411 18.456C4.76411 18.672 5.01611 18.744 5.23211 18.672L7.62011 17.712C8.12411 18.096 8.65211 18.408 9.24011 18.648L9.60011 21.192C9.64811 21.432 9.84011 21.6 10.0801 21.6H13.9201C14.1601 21.6 14.3641 21.432 14.3881 21.192L14.7481 18.648C15.3361 18.408 15.8761 18.084 16.3681 17.712L18.7561 18.672C18.9721 18.756 19.2241 18.672 19.3441 18.456L21.2641 15.132C21.3841 14.916 21.3361 14.664 21.1441 14.52L19.1401 12.936Z" stroke="black" stroke-opacity="0.54" stroke-width="2"/>
<path d="M8.40039 12C8.40039 13.98 10.0204 15.6 12.0004 15.6C13.9804 15.6 15.6004 13.98 15.6004 12C15.6004 10.02 13.9804 8.40002 12.0004 8.40002C10.0204 8.40002 8.40039 10.02 8.40039 12Z" fill="black" fill-opacity="0.54"/>
</svg>
